<?xml version="1.0" encoding="utf-8"?>
<!-- Generator: Adobe Illustrator 19.2.0, SVG Export Plug-In . SVG Version: 6.00 Build 0)  -->
<svg version="1.1" xmlns="http://www.w3.org/2000/svg" xmlns:xlink="http://www.w3.org/1999/xlink" x="0px" y="0px"
	 viewBox="0 0 450 450" enable-background="new 0 0 450 450" xml:space="preserve">
<g id="_x30_1">
	<path fill="none" stroke="#000000" stroke-width="0.3" stroke-linecap="round" stroke-linejoin="round" stroke-miterlimit="10" d="
		M288.6,241.7c0.4,3.8,1.2,15.7-8.3,23.6c-12.6,10.5-25.9,3.8-25.9,3.8"/>
	<path fill="none" stroke="#000000" stroke-width="0.3" stroke-linecap="round" stroke-linejoin="round" stroke-miterlimit="10" d="
		M186.3,178.5c0,0-33,11.5-43.4,49"/>
	<path fill="none" stroke="#000000" stroke-width="0.3" stroke-linecap="round" stroke-linejoin="round" stroke-miterlimit="10" d="
		M201.4,286.3c0,0,12.3,20.6,35.9,29.4c23.6,8.8,44.9,5,62.5-4.2"/>
	<path fill="none" stroke="#000000" stroke-width="0.3" stroke-linecap="round" stroke-linejoin="round" stroke-miterlimit="10" d="
		M247.9,127.9c0,0-23.3-8.1-55.5-2.6"/>
	<path fill="none" stroke="#000000" stroke-width="0.3" stroke-linecap="round" stroke-linejoin="round" stroke-miterlimit="10" d="
		M165,248.1c0,0,0,17.2,6.7,34.1c0,0,5.3,13.4,11.3,21.1"/>
</g>
</svg>
